<?xml version="1.0" encoding="iso-8859-1"?>
<!-- Generator: Adobe Illustrator 19.0.0, SVG Export Plug-In . SVG Version: 6.00 Build 0)  -->
<svg version="1.1" id="Layer_1" xmlns="http://www.w3.org/2000/svg" xmlns:xlink="http://www.w3.org/1999/xlink" x="0px" y="0px"
	 viewBox="0 0 512 512" style="enable-background:new 0 0 512 512;" xml:space="preserve">
<rect x="315.031" y="189.232" style="fill:#FF738E;" width="57.919" height="98.462"/>
<path style="fill:#6BADB4;" d="M71.768,264.526v214.299c0,28.789,104.253,28.789,104.253,0V264.526L71.768,264.526L71.768,264.526z"
	/>
<path style="fill:#FF738E;" d="M433.136,454.137c-1.25,25.454-23.123,46.279-48.608,46.279h-81.086
	c-25.484,0-47.358-20.825-48.608-46.279l-7.038-143.332c-1.25-25.454,18.578-46.279,44.062-46.279l52.127,23.167l52.127-23.167
	c25.484,0,45.312,20.825,44.062,46.279L433.136,454.137z"/>
<path style="fill:#FD3B6D;" d="M291.916,264.526l5.898,120.109c1.25,25.454,22.028,46.279,46.173,46.279
	c24.145,0,44.923-20.825,46.173-46.279l5.898-120.109H291.916z"/>
<g>
	<path style="fill:#000030;" d="M176.022,252.942h-40.543V104.566L158.186,26.4c1.784-6.144-1.749-12.572-7.892-14.356
		c-6.144-1.787-12.571,1.749-14.356,7.891l-0.46,1.583v-9.935C135.479,5.186,130.293,0,123.895,0
		c-6.398,0-11.584,5.186-11.584,11.584v9.934l-0.46-1.582c-1.785-6.144-8.212-9.677-14.356-7.891
		c-6.144,1.784-9.677,8.212-7.892,14.356l22.708,78.166v148.376H71.768c-6.398,0-11.584,5.187-11.584,11.584v214.299
		c0,24.487,34.32,33.176,63.71,33.176s63.71-8.689,63.71-33.176V264.526C187.606,258.129,182.42,252.942,176.022,252.942z
		 M123.895,488.833c-26.114,0-39.59-7.187-40.543-10.008V276.109h81.086l0.008,202.678
		C163.486,481.646,150.011,488.833,123.895,488.833z"/>
	<path style="fill:#000030;" d="M436.558,270.133c-10.554-11.086-24.919-17.191-40.446-17.191h-11.584v-14.48
		c6.398,0,11.584-5.187,11.584-11.584c0-6.397-5.186-11.584-11.584-11.584v-26.063c0-6.397-5.186-11.584-11.584-11.584h-57.919
		c-6.397,0-11.584,5.187-11.584,11.584v26.063c-6.397,0-11.584,5.187-11.584,11.584c0,6.397,5.187,11.584,11.584,11.584v14.48
		h-11.584c-15.527,0-29.892,6.106-40.446,17.19c-10.555,11.086-15.948,25.732-15.186,41.241l7.039,143.331
		c1.55,31.592,28.546,57.295,60.176,57.295h81.086c31.63,0,58.625-25.703,60.177-57.295l7.038-143.331
		C452.507,295.865,447.113,281.218,436.558,270.133z M326.61,200.815h34.751v14.48H326.61V200.815z M326.61,238.462h34.751v14.48
		H326.61V238.462z M428.605,310.237l-7.038,143.331c-0.955,19.446-17.57,35.264-37.038,35.264h-81.086
		c-19.469,0-36.083-15.819-37.038-35.263l-7.039-143.331c-0.447-9.113,2.687-17.683,8.826-24.13
		c3.589-3.768,7.956-6.539,12.784-8.198l5.268,107.293c1.552,31.593,27.456,57.294,57.742,57.294
		c30.289,0,56.191-25.702,57.744-57.294l1.812-36.915c0.313-6.391-4.611-11.823-11.002-12.137
		c-6.401-0.313-11.825,4.613-12.137,11.002l-1.813,36.915c-0.937,19.114-16.785,35.262-34.603,35.262
		c-17.818,0-33.663-16.148-34.602-35.262l-5.302-107.958h79.807l-1.549,31.534c-0.314,6.39,4.611,11.823,11.002,12.137
		c0.193,0.009,0.386,0.014,0.577,0.014c6.137,0,11.257-4.819,11.561-11.016l1.516-30.869c4.828,1.659,9.194,4.428,12.783,8.197
		C425.918,292.556,429.053,301.124,428.605,310.237z"/>
</g>
<g>
</g>
<g>
</g>
<g>
</g>
<g>
</g>
<g>
</g>
<g>
</g>
<g>
</g>
<g>
</g>
<g>
</g>
<g>
</g>
<g>
</g>
<g>
</g>
<g>
</g>
<g>
</g>
<g>
</g>
</svg>
