<?xml version="1.0" encoding="iso-8859-1"?>
<!-- Generator: Adobe Illustrator 19.0.0, SVG Export Plug-In . SVG Version: 6.00 Build 0)  -->
<svg version="1.1" id="Layer_1" xmlns="http://www.w3.org/2000/svg" xmlns:xlink="http://www.w3.org/1999/xlink" x="0px" y="0px"
	 viewBox="0 0 512.001 512.001" style="enable-background:new 0 0 512.001 512.001;" xml:space="preserve">
<path style="fill:#027EA8;" d="M427.474,135.093H158.071V0h301.438v103.059C459.509,120.751,445.167,135.093,427.474,135.093z"/>
<path style="fill:#84DCCF;" d="M347.867,55.42c-26.402,0-47.428,21.402-47.428,47.804v398.374l-55.912-15.935l-31.94,15.935
	l-39.873-15.935l-31.886,15.935l-31.623-15.935l-55.526,15.935V103.223c0-26.402,20.892-47.804,47.294-47.804H347.49"/>
<rect x="180.648" y="358.179" style="fill:#F15A24;" width="87.642" height="47.805"/>
<path style="fill:#027EA8;" d="M109.094,103.223c0-26.402,21.248-47.804,47.65-47.804h-55.772
	c-26.402,0-47.294,21.401-47.294,47.804v398.374l55.417-15.935C109.094,485.663,109.094,103.223,109.094,103.223z"/>
<rect x="85.038" y="111.189" style="fill:#FFFFFF;" width="87.642" height="191.219"/>
<rect x="85.038" y="111.189" style="fill:#F2F2F2;" width="23.902" height="191.219"/>
<path style="fill:#FBA218;" d="M300.438,103.223c0-26.402,21.695-47.805,48.097-47.805s48.097,21.403,48.097,47.805v31.662h-96.195
	V103.223z"/>
<path d="M451.004,0.004v103.22c0,13.474-10.409,24.028-23.696,24.028c-13.158,0-23.863-10.779-23.863-24.028
	c0-30.679-24.972-55.638-55.67-55.648l-246.803-0.521c-30.69,0-55.659,25.197-55.659,56.168v408.77l62.835-17.953l32.647,16.324
	l32.211-16.113l39.81,15.935l32.229-16.144l62.713,17.957V103.223c0-22.036,17.945-39.964,40.001-39.964
	c22.057,0,40.002,17.928,40.002,39.964c0,9.064,3.046,17.423,8.156,24.115l-79.817,0.229l0.045,15.684l110.833-0.318v-0.005
	c0.111,0.001,0.22,0.008,0.329,0.008c21.715,0,39.38-17.815,39.38-39.712V0.004H451.004z M292.074,103.223v387.971l-48.588-13.912
	l-31.39,15.724l-39.805-15.933l-31.498,15.755l-31.089-15.544l-48.708,13.916V103.223c0-22.323,17.933-40.484,39.958-40.484
	l208.175,0.439C298.621,73.307,292.074,87.516,292.074,103.223z"/>
<rect x="148.83" y="0.004" width="15.684" height="39.733"/>
<rect x="188.563" y="15.684" width="208.074" height="15.684"/>
<rect x="411.275" y="15.684" style="fill:#FFFFFF;" width="15.684" height="15.684"/>
<rect x="403.955" y="47.052" width="23.003" height="15.684"/>
<path d="M180.521,310.252H77.195V103.349h103.326V310.252z M92.878,294.568h71.958V119.033H92.878
	C92.878,119.033,92.878,294.568,92.878,294.568z"/>
<path d="M276.131,413.83H172.805v-63.489h103.327V413.83z M188.489,398.146h71.959v-32.121h-71.959V398.146z"/>
<rect x="195.882" y="102.468" width="80.511" height="15.684"/>
<rect x="195.882" y="127.563" style="fill:#FFFFFF;" width="16.73" height="15.684"/>
<rect x="195.882" y="151.611" width="80.511" height="15.684"/>
<rect x="195.882" y="174.614" width="80.511" height="15.684"/>
<rect x="195.882" y="198.663" width="80.511" height="15.684"/>
<rect x="195.882" y="222.712" width="80.511" height="15.684"/>
<rect x="195.882" y="246.761" width="80.511" height="15.684"/>
<rect x="195.882" y="270.809" width="80.511" height="15.684"/>
<rect x="195.882" y="293.812" width="80.511" height="15.684"/>
<rect x="76.684" y="326.226" width="79.465" height="15.684"/>
<rect x="76.684" y="350.275" style="fill:#FFFFFF;" width="39.733" height="15.684"/>
<rect x="76.684" y="374.323" width="79.465" height="15.684"/>
<rect x="76.684" y="398.372" width="79.465" height="15.684"/>
<rect x="76.684" y="422.421" width="199.709" height="15.684"/>
<rect x="76.684" y="445.424" width="199.709" height="15.684"/>
<g>
	<rect x="172.879" y="326.226" style="fill:#FFFFFF;" width="15.684" height="15.684"/>
	<rect x="205.292" y="326.226" style="fill:#FFFFFF;" width="14.638" height="15.684"/>
	<rect x="235.615" y="326.226" style="fill:#FFFFFF;" width="16.73" height="15.684"/>
</g>
<g>
</g>
<g>
</g>
<g>
</g>
<g>
</g>
<g>
</g>
<g>
</g>
<g>
</g>
<g>
</g>
<g>
</g>
<g>
</g>
<g>
</g>
<g>
</g>
<g>
</g>
<g>
</g>
<g>
</g>
</svg>
