<?xml version="1.0" encoding="iso-8859-1"?>
<!-- Generator: Adobe Illustrator 19.1.0, SVG Export Plug-In . SVG Version: 6.00 Build 0)  -->
<svg version="1.1" id="Capa_1" xmlns="http://www.w3.org/2000/svg" xmlns:xlink="http://www.w3.org/1999/xlink" x="0px" y="0px"
	 viewBox="0 0 394.171 394.171" style="enable-background:new 0 0 394.171 394.171;" xml:space="preserve">
<g>
	<path style="fill:#FFFFFF;" d="M103.565,321.972v-49.533c-4.055-1.314-7.542-3.896-10-7.276v56.809
		c-0.104,11.638,1.184,25.488,3.814,36.625c2.604-2.05,5.726-3.464,9.134-4.014C104.469,344.248,103.474,332.248,103.565,321.972z"
		/>
	<circle style="fill:none;" cx="109.671" cy="374.252" r="5.073"/>
	<path style="fill:#FFA6BB;" d="M104.745,253.456c0,0.008,0.002,0.017,0.002,0.024c0,2.715,2.209,4.924,4.924,4.924
		c2.715,0,4.924-2.209,4.924-4.924c0-0.008,0-0.017,0-0.024C111.321,253.686,108.02,253.686,104.745,253.456z"/>
	<path style="fill:#FFA6BB;" d="M93.563,236.164c5.062,1.633,10.543,2.492,16.107,2.492c5.562,0,11.043-0.859,16.105-2.492v-2.683
		c-4.941,1.173-10.342,2.213-16.107,2.213c-5.764,0-11.164-1.039-16.105-2.213V236.164z"/>
	<g>
		<path style="fill:#FFFFFF;" d="M197.567,92.383c-0.346-10.475,0.38-35.12,5.748-53.642c-1.066-5.514-2.438-10.828-4.186-15.518
			c-7.021,18.799-7.943,47.604-7.562,59.159c0.002,0.082,0.004,0.164,0.004,0.246v143.247h6V92.629
			C197.571,92.547,197.569,92.465,197.567,92.383z"/>
		<path style="fill:#FFFFFF;" d="M195.899,321.972v-81.096h-10v81.096c-0.223,28.752,6.176,56.118,13.232,56.983
			c1.739-0.213,3.436-2.033,5.005-5.074C199.33,364.547,195.731,343.657,195.899,321.972z"/>
		<path style="fill:#BA82AA;" d="M204.137,373.88L204.137,373.88c4.813-9.33,8.409-30.208,8.227-51.846v-81.158h-16.465v81.096
			C195.731,343.657,199.33,364.547,204.137,373.88z"/>
		<path style="fill:none;" d="M212.364,240.876h-16.465h-10v81.096c-0.223,28.752,6.176,56.118,13.232,56.983
			c1.738-0.213,3.436-2.033,5.005-5.074c4.813-9.33,8.409-30.208,8.227-51.846V240.876z"/>
		<path style="fill:#FFA6BB;" d="M197.567,92.383c0.002,0.082,0.004,0.164,0.004,0.246v133.247h9.123V82.629
			c0-0.082,0-0.164,0.004-0.246c0.279-8.675-0.178-27.063-3.383-43.641C197.947,57.264,197.222,81.909,197.567,92.383z"/>
		<path style="fill:#7F3960;" d="M227.364,321.972v-88.596c0-3.511-2.414-6.448-5.67-7.266V82.747
			c0.111-3.716,1.389-57.077-16.682-79.903c-2.57-3.247-7.287-3.794-10.535-1.226c-0.465,0.368-0.869,0.784-1.221,1.229
			l-0.006-0.004c-18.068,22.826-16.793,76.188-16.68,79.903v143.363c-3.258,0.817-5.672,3.755-5.672,7.266v88.533
			c-0.006,0.677-0.107,16.755,2.484,33.212c3.99,25.345,12.57,38.413,25.498,38.845c0.084,0.003,0.168,0.004,0.25,0.004
			c0.084,0,0.168-0.001,0.25-0.004c12.93-0.432,21.508-13.5,25.5-38.845C227.472,338.664,227.37,322.586,227.364,321.972z
			 M199.13,23.224c1.749,4.689,3.119,10.004,4.186,15.519c3.205,16.577,3.662,34.966,3.383,43.641
			c-0.004,0.082-0.004,0.164-0.004,0.246v143.247h-9.123h-6V82.629c0-0.082-0.002-0.164-0.004-0.246
			C191.187,70.827,192.108,42.023,199.13,23.224z M204.137,373.88c-1.568,3.041-3.267,4.861-5.005,5.074
			c-7.057-0.864-13.455-28.23-13.232-56.983v-81.096h10h16.465v81.158C212.546,343.672,208.95,364.55,204.137,373.88z"/>
	</g>
	<g>
		<path style="fill:#FFFFFF;" d="M299.353,110.416c0.716-1.398,1.135-2.783,1.311-4.138c-2.876,3.156-6.63,5.671-11.424,6.202
			c0.613,0.067,1.241,0.107,1.889,0.107C294.266,112.588,296.992,111.755,299.353,110.416z"/>
		<path style="fill:#FFFFFF;" d="M282.257,114.668c-1.41-1.41-2.436-2.842-3.155-4.265c-1.925-1.097-3.607-2.527-5.063-4.125
			c0.353,2.721,1.65,5.6,4.441,8.39c10.309,10.312,7.416,22.241,2.195,29.309v9.604h3.777v-9.604
			C289.673,136.909,292.565,124.981,282.257,114.668z"/>
		<path style="fill:#FFFFFF;" d="M284.044,321.972V168.581h-10v153.391c-0.223,28.752,6.176,56.118,13.232,56.983
			c1.737-0.213,3.433-2.036,5.001-5.083C287.473,364.534,283.876,343.651,284.044,321.972z"/>
		<path style="fill:#BA82AA;" d="M292.277,373.871L292.277,373.871c4.805-9.335,8.401-30.206,8.231-51.839V168.581h-16.465v153.391
			C283.876,343.651,287.473,364.534,292.277,373.871z"/>
		<path style="fill:none;" d="M300.509,168.581h-16.465h-10v153.391c-0.223,28.752,6.176,56.118,13.232,56.983
			c1.736-0.213,3.434-2.036,5.001-5.083c4.805-9.335,8.401-30.206,8.231-51.839V168.581z"/>
		<path style="fill:#FFA6BB;" d="M284.452,143.977v9.604h9.5v-9.668c-1.207-1.666-10.397-16.338,2.197-29.245
			c1.366-1.4,2.38-2.805,3.1-4.197c-2.337,1.306-5.028,2.117-8.121,2.117c-0.648,0-1.275-0.04-1.889-0.107
			c-0.01-0.001-0.019-0.004-0.027-0.005c-0.628,0.071-1.271,0.112-1.936,0.112c-3.102,0-5.801-0.815-8.143-2.127
			c0.717,1.404,1.732,2.816,3.123,4.207C292.565,124.981,289.673,136.909,284.452,143.977z"/>
		<path style="fill:#7F3960;" d="M315.509,161.081c0-3.822-2.859-6.97-6.557-7.435v-12.411c0-1.989-0.418-4.052-2.197-5.304
			c-0.016-0.011-6.686-3.765,0.002-10.656c13.363-13.774,10.129-31.661,0-41.792c-1.9-1.902-4.678-2.639-7.268-1.936
			c-2.596,0.704-4.615,2.743-5.293,5.345c-1.098,4.207-4.564,10.695-6.92,10.695c-2.184,0-5.633-5.894-6.918-10.694
			c-0.678-2.602-2.697-4.641-5.293-5.346c-2.588-0.701-5.367,0.034-7.268,1.935c-10.131,10.13-13.572,28.22,0,41.792
			c4.291,4.293,2.334,8.199,0,10.657c-1.486,1.416-2.197,3.251-2.197,5.304v12.411c-3.695,0.465-6.557,3.612-6.557,7.435v160.828
			c-0.004,0.677-0.107,16.755,2.484,33.212c3.99,25.345,12.57,38.413,25.498,38.845c0.084,0.003,0.168,0.004,0.25,0.004
			c0.084,0,0.168-0.001,0.25-0.004c12.93-0.432,21.508-13.5,25.5-38.845c2.59-16.457,2.488-32.535,2.482-33.15V161.081z
			 M279.134,110.461c2.342,1.312,5.041,2.127,8.143,2.127c0.664,0,1.308-0.041,1.936-0.112c4.771-0.542,8.51-3.052,11.377-6.197
			c-0.178,1.372-0.607,2.775-1.34,4.192c-0.72,1.392-1.733,2.797-3.1,4.197c-12.594,12.907-3.404,27.579-2.197,29.245v9.668h-9.5
			h-3.852v-9.604c5.221-7.067,8.113-18.996-2.195-29.309c-2.791-2.79-4.088-5.669-4.441-8.39
			C275.446,107.906,277.164,109.358,279.134,110.461z M292.277,373.871c-1.567,3.047-3.265,4.87-5.001,5.083
			c-7.057-0.864-13.455-28.23-13.232-56.983V168.581h10h16.465v153.451C300.679,343.665,297.082,364.536,292.277,373.871z"/>
	</g>
	<path style="fill:none;" d="M109.671,258.405c2.715,0,4.924-2.209,4.924-4.924c0-0.008,0-0.017,0-0.024
		c-3.274,0.23-6.574,0.23-9.85,0c0,0.008,0.002,0.017,0.002,0.024C104.747,256.196,106.956,258.405,109.671,258.405z"/>
	<path style="fill:none;" d="M125.776,236.164v-2.683c-4.941,1.173-10.342,2.213-16.107,2.213c-5.764,0-11.164-1.039-16.105-2.213
		v2.683c5.062,1.633,10.543,2.492,16.107,2.492C115.233,238.657,120.714,237.797,125.776,236.164z"/>
	<circle style="fill:none;" cx="109.671" cy="374.252" r="5.073"/>
	<path style="fill:#FFA6BB;" d="M106.514,354.583L106.514,354.583c1.029-0.166,2.081-0.261,3.157-0.261
		c4.627,0,8.881,1.6,12.268,4.257c0.443-1.873,0.857-3.854,1.232-5.948c2.719-15.168,2.607-30.435,2.605-30.588v-56.881
		c-3.625,4.983-9.486,8.242-16.105,8.242c-2.131,0-4.182-0.342-6.105-0.966v49.533C103.474,332.248,104.469,344.248,106.514,354.583
		z"/>
	<path style="fill:#7F3960;" d="M140.776,321.972V223.93c0-2.275-1.033-4.426-2.807-5.85c-1.773-1.423-4.098-1.966-6.318-1.473
		c-1.801,0.399-3.658,0.867-5.453,1.319c-5.404,1.36-10.992,2.768-16.529,2.768c-5.535,0-11.125-1.407-16.529-2.768
		c-1.795-0.452-3.65-0.92-5.451-1.319c-2.221-0.492-4.545,0.05-6.318,1.473c-1.773,1.424-2.806,3.575-2.806,5.85l0.001,97.971
		c-0.006,0.68-0.124,16.841,2.842,33.378c2.665,14.867,7.031,25.488,13.043,31.799c3.658,4.332,9.119,7.094,15.221,7.094
		c6.1,0,11.561-2.762,15.219-7.094c6.012-6.31,10.379-16.932,13.045-31.799C140.899,338.742,140.782,322.58,140.776,321.972z
		 M104.745,253.456c3.275,0.23,6.576,0.23,9.85,0c0,0.008,0,0.017,0,0.024c0,2.715-2.209,4.924-4.924,4.924
		c-2.715,0-4.924-2.209-4.924-4.924C104.747,253.473,104.745,253.464,104.745,253.456z M93.563,233.482
		c4.941,1.174,10.342,2.213,16.105,2.213c5.766,0,11.166-1.04,16.107-2.213v2.683c-5.062,1.633-10.543,2.492-16.105,2.492
		c-5.564,0-11.045-0.859-16.107-2.492V233.482z M93.565,321.972v-56.809c2.458,3.38,5.945,5.962,10,7.276
		c1.924,0.624,3.975,0.966,6.105,0.966c6.619,0,12.48-3.259,16.105-8.242v56.881c0.002,0.152,0.113,15.42-2.605,30.588
		c-0.375,2.094-0.789,4.075-1.232,5.948c-3.387-2.657-7.641-4.257-12.268-4.257c-1.076,0-2.128,0.095-3.157,0.261
		c-3.408,0.55-6.529,1.964-9.134,4.014C94.749,347.46,93.462,333.61,93.565,321.972z M109.671,379.326
		c-2.803,0-5.074-2.271-5.074-5.073c0-2.802,2.271-5.073,5.074-5.073c2.801,0,5.072,2.271,5.072,5.073
		C114.743,377.054,112.472,379.326,109.671,379.326z"/>
</g>
<g>
</g>
<g>
</g>
<g>
</g>
<g>
</g>
<g>
</g>
<g>
</g>
<g>
</g>
<g>
</g>
<g>
</g>
<g>
</g>
<g>
</g>
<g>
</g>
<g>
</g>
<g>
</g>
<g>
</g>
</svg>
