<?xml version="1.0" encoding="iso-8859-1"?>
<!-- Generator: Adobe Illustrator 19.0.0, SVG Export Plug-In . SVG Version: 6.00 Build 0)  -->
<svg version="1.1" id="Layer_1" xmlns="http://www.w3.org/2000/svg" xmlns:xlink="http://www.w3.org/1999/xlink" x="0px" y="0px"
	 viewBox="0 0 511.993 511.993" style="enable-background:new 0 0 511.993 511.993;" xml:space="preserve">
<path style="fill:#EAC6BB;" d="M255.997,63.999c-53.03,0-95.998,43.062-95.998,96.186v351.808h191.996V160.184
	C351.995,107.06,309.012,63.999,255.997,63.999z"/>
<path style="fill:#E6E9ED;" d="M191.56,0v149.435c0,35.281,28.64,63.889,63.999,63.889c35.344,0,63.983-28.608,63.983-63.889V0
	H191.56z"/>
<path style="fill:#EC87C0;" d="M255.559,213.324c35.344,0,63.983-28.608,63.983-63.889v-82.67
	c-16.92-14.985-39.17-24.094-63.545-24.094c-24.812,0-47.405,9.422-64.437,24.891v81.874
	C191.56,184.716,220.201,213.324,255.559,213.324z"/>
<g>
	<path style="fill:#DBADA2;" d="M223.997,437.336h64c5.891,0,10.656-4.781,10.656-10.656c0-5.905-4.766-10.687-10.656-10.687h-64
		c-5.89,0-10.671,4.781-10.671,10.687C213.326,432.555,218.107,437.336,223.997,437.336z"/>
	<path style="fill:#DBADA2;" d="M298.653,458.68h-85.327c-5.891,0-10.672,4.75-10.672,10.656c0,5.875,4.781,10.656,10.672,10.656
		h85.327c5.891,0,10.671-4.781,10.671-10.656C309.324,463.43,304.544,458.68,298.653,458.68z"/>
</g>
<g>
</g>
<g>
</g>
<g>
</g>
<g>
</g>
<g>
</g>
<g>
</g>
<g>
</g>
<g>
</g>
<g>
</g>
<g>
</g>
<g>
</g>
<g>
</g>
<g>
</g>
<g>
</g>
<g>
</g>
</svg>
