<?xml version="1.0" encoding="iso-8859-1"?>
<!-- Generator: Adobe Illustrator 19.0.0, SVG Export Plug-In . SVG Version: 6.00 Build 0)  -->
<svg version="1.1" id="Layer_1" xmlns="http://www.w3.org/2000/svg" xmlns:xlink="http://www.w3.org/1999/xlink" x="0px" y="0px"
	 viewBox="0 0 512.001 512.001" style="enable-background:new 0 0 512.001 512.001;" xml:space="preserve">
<rect x="240.708" y="72.606" transform="matrix(-0.7071 -0.7071 0.7071 -0.7071 417.1353 551.282)" style="fill:#E35336;" width="164.067" height="233.287"/>
<path style="fill:#D93C1C;" d="M276.92,235.081c-49.059-49.059-116.582-68.387-180.199-58.007L334.927,415.28
	C345.307,351.663,325.979,284.139,276.92,235.081z"/>
<polygon style="fill:#E5E5E5;" points="63.083,485.576 8.096,503.904 26.425,448.918 197.495,277.848 234.153,314.506 "/>
<rect x="178.414" y="291.418" transform="matrix(-0.7071 -0.7071 0.7071 -0.7071 131.2715 669.6971)" style="fill:#CCCCCC;" width="51.841" height="32.487"/>
<path style="fill:#D93C1C;" d="M493.777,134.236L377.764,18.224c-13.497-13.497-35.38-13.497-48.877,0l0,0
	c-13.497,13.497-13.497,35.38,0,48.877L444.9,183.115c13.497,13.497,35.38,13.497,48.877,0l0,0
	C507.274,169.617,507.274,147.733,493.777,134.236z"/>
<path d="M499.505,128.508l-72.045-72.045c-3.163-3.162-8.293-3.162-11.455,0c-3.163,3.165-3.163,8.293,0,11.456l72.045,72.044
	c10.2,10.201,10.2,27.222,0,37.422c-10.201,10.2-27.221,10.2-37.421-0.001L334.614,61.371c-10.2-10.199-10.2-27.22,0-37.419
	c10.2-10.201,27.221-10.201,37.421,0l23.986,23.984c3.163,3.162,8.293,3.163,11.455-0.001c3.163-3.163,3.163-8.293,0-11.455
	l-23.984-23.984C375.434,4.438,364.721,0,353.324,0c-11.396,0-22.108,4.438-30.167,12.495c-8.057,8.058-12.495,18.771-12.495,30.167
	c0,8.646,2.56,16.895,7.312,23.894L204.956,179.574c-3.392-1.254-6.81-2.441-10.263-3.52c-31.896-9.958-66.224-12.369-99.277-6.976
	c-6.383,1.041-9.004,9.14-4.423,13.723l95.046,95.046l-25.347,25.347c-3.163,3.165-3.163,8.293,0,11.456
	c3.163,3.162,8.293,3.162,11.455,0l25.347-25.347l25.203,25.202L58.707,478.495l-37.804,12.602l12.601-37.804l120.011-120.011
	c3.163-3.165,3.163-8.293,0-11.456c-3.163-3.162-8.293-3.162-11.455,0L20.697,443.189c-0.889,0.889-1.56,1.973-1.957,3.167
	L0.411,501.343c-2.069,6.207,4.033,12.317,10.246,10.246l54.987-18.329c1.192-0.397,2.277-1.067,3.167-1.957l165.341-165.341
	l95.047,95.046c4.583,4.583,12.681,1.954,13.723-4.424c5.394-33.054,2.981-67.384-6.976-99.277c-1.078-3.453-2.266-6.87-3.52-10.264
	l113.019-113.019c6.999,4.752,15.248,7.312,23.894,7.312c11.396,0,22.108-4.438,30.167-12.495
	c8.057-8.058,12.495-18.771,12.495-30.167S507.562,136.566,499.505,128.508z M328.895,397.793L114.206,183.106
	c57.916-4.625,115.622,16.339,156.985,57.703C312.557,282.174,333.52,339.867,328.895,397.793z M282.648,229.353
	c-17.847-17.847-38.781-32.431-61.525-43.033L328.887,78.556l104.559,104.558L325.682,290.878
	C315.079,268.134,300.494,247.2,282.648,229.353z"/>
<g>
</g>
<g>
</g>
<g>
</g>
<g>
</g>
<g>
</g>
<g>
</g>
<g>
</g>
<g>
</g>
<g>
</g>
<g>
</g>
<g>
</g>
<g>
</g>
<g>
</g>
<g>
</g>
<g>
</g>
</svg>
