<svg xmlns="http://www.w3.org/2000/svg" viewBox="0 0 512.003 512.003"><path d="M9.287 322.478c-.59 0-1.157-.014-1.701-.039C3.348 322.246 0 318.785 0 314.543v-.037c0-4.301 3.442-7.753 7.741-7.899 7.343-.25 18.652-2.912 28.252-14.949a29.747 29.747 0 001.475-2.015c-16.246-3.49-26.035-9.041-29.843-16.888-2.257-4.65-3.432-12.194 3.782-21.726 4.974-6.574 12.145-9.772 19.678-8.764 9.56 1.275 18.571 9.146 22.958 20.051 1.989 4.943 2.902 10.038 2.77 15.086 4.557.472 9.19.77 13.667.868 4.133.09 7.665 3.333 7.715 7.467.052 4.292-3.421 7.721-7.706 7.661-.397-.008-7.704-.162-17.15-1.229-1.417 3.092-3.26 6.083-5.521 8.918-14.328 17.964-29.24 21.391-38.531 21.391zM28.323 257.2c-1.292 0-3.002.501-4.858 2.953-1.171 1.548-3.018 4.384-2.235 5.998 1.765 3.641 9.898 6.768 20.364 8.939a22.96 22.96 0 00-1.582-7.131c-2.581-6.414-7.451-10.24-10.928-10.704a5.575 5.575 0 00-.761-.055z" fill="#e8679c"/><path d="M497.41 279.267l-21.281-6.817c-5.093-1.631-9.048-5.652-10.652-10.753-24.49-77.874-115.428-113.637-206.964-113.637-107.091 0-193.905 48.937-193.905 157.007 0 62.285 30.549 105.91 77.747 131.105a4.355 4.355 0 012.236 3.013l10.574 54.923a10.958 10.958 0 0010.767 8.92h35.707c5.266 0 9.787-3.746 10.767-8.92l5.78-30.536c.426-2.253 2.526-3.771 4.803-3.506 11.517 1.337 23.39 2.008 35.524 2.008 16.219 0 32.418-1.198 48.234-3.588 2.324-.351 4.514 1.177 4.952 3.486l6.083 32.136a10.958 10.958 0 0010.767 8.92h35.707c5.266 0 9.787-3.746 10.767-8.92l10.983-58.152a4.35 4.35 0 012.278-3.048c28.029-14.573 51.217-34.622 66.006-60.181 1.971-3.406 5.087-6.002 8.835-7.202l34.288-10.983a20.994 20.994 0 0014.59-19.993V299.26a21 21 0 00-14.593-19.993z" fill="#ff7bac"/><g fill="#e8679c"><path d="M509.327 289.039a21.02 21.02 0 00-3.397-4.54c-.029-.029-.054-.061-.083-.089a20.953 20.953 0 00-8.436-5.143l-15.777-5.053v18.559c0 23.057-14.691 43.551-36.526 50.956-9.929 3.18-18.514 9.472-24.805 17.787-7.703 10.182-16.856 19.332-27.171 27.452-12.161 9.573-20.364 23.273-22.709 38.571-1.672 10.909-2.967 22.548-3.793 30.796-.635 6.344-5.968 11.175-12.343 11.175h-25.739a10.959 10.959 0 01-10.767-8.92l-6.083-32.136c-.437-2.309-2.627-3.838-4.951-3.486-15.815 2.39-32.014 3.588-48.234 3.588-12.135 0-24.007-.671-35.524-2.008-2.278-.264-4.377 1.254-4.804 3.507l-5.78 30.536a10.958 10.958 0 01-10.767 8.92h-35.707a10.959 10.959 0 01-10.767-8.92l-10.574-54.923a4.355 4.355 0 00-2.236-3.013c-42.889-22.896-72.024-61.013-76.988-114.517v.003a185.885 185.885 0 00-.313 3.968l-.005.079-.025.395a191.448 191.448 0 00-.205 3.614c-.023.503-.039 1.012-.058 1.518-.036.924-.072 1.848-.095 2.782a197.57 197.57 0 00-.058 4.573c0 7.786.477 15.28 1.405 22.483 1.136 8.825 2.955 17.207 5.393 25.159.133.435.272.866.409 1.298.339 1.069.691 2.135 1.055 3.196.145.423.289.848.438 1.268a137.462 137.462 0 003.253 8.318c.124.288.247.577.372.863a133.822 133.822 0 001.777 3.901c.101.213.207.423.309.635.57 1.183 1.159 2.357 1.763 3.524.104.2.205.402.309.602a134.084 134.084 0 002.03 3.714c.151.266.304.531.456.796a132.876 132.876 0 007.281 11.287c.249.346.503.689.755 1.032.632.861 1.274 1.715 1.926 2.561.257.333.512.667.771.997A136.535 136.535 0 0097 400.029l.025.03a136.698 136.698 0 002.808 3.231c.288.323.582.641.873.961.71.78 1.43 1.552 2.158 2.315.294.308.586.618.883.923a140.44 140.44 0 003.036 3.042l.007.007a143.302 143.302 0 003.504 3.282 147.61 147.61 0 007.358 6.238 157.86 157.86 0 0015.635 10.915c.364.224.731.443 1.097.664.956.577 1.917 1.144 2.883 1.703.383.221.765.444 1.15.662 1.301.738 2.61 1.466 3.937 2.174.29.155.559.34.804.551.22.19.413.406.59.633.053.067.098.138.146.209.121.176.229.36.323.553.038.077.077.152.11.231.112.269.206.546.262.837l10.574 54.923a10.923 10.923 0 002.452 5.1c.231.269.477.522.732.766.081.077.166.149.248.224a11.19 11.19 0 00.863.705c.2.146.405.285.614.417.094.06.187.122.283.179.303.18.614.349.935.499l.014.006c.321.15.652.28.988.398.106.037.215.068.322.102a10.445 10.445 0 001.857.415c.115.016.229.034.344.046.366.037.736.061 1.11.062h35.713a10.924 10.924 0 006.249-1.957 10.983 10.983 0 003.162-3.386 10.938 10.938 0 001.355-3.577l5.78-30.536v-.001c.048-.254.124-.495.212-.728.026-.07.057-.135.087-.203.074-.168.156-.329.249-.484.037-.062.072-.124.112-.184.135-.201.28-.394.445-.568a4.364 4.364 0 011.619-1.061 4.478 4.478 0 01.624-.191 4.56 4.56 0 01.353-.06c.115-.016.227-.036.344-.042.249-.015.502-.014.758.016a290.664 290.664 0 007.248.742c1.938.176 3.883.341 5.839.48l.029.002a306.517 306.517 0 007.389.429 316 316 0 005.968.23 330.393 330.393 0 0021.205-.098c2.072-.077 4.142-.174 6.21-.29.211-.012.42-.029.631-.041 1.878-.109 3.755-.23 5.628-.372l.131-.011a324.107 324.107 0 0017.893-1.861c.897-.119 1.79-.253 2.684-.379.984-.139 1.971-.269 2.952-.418 1.989-.301 3.866.818 4.623 2.601.01.023.025.043.035.067.106.262.188.538.243.826l3.041 16.068 3.041 16.068a10.958 10.958 0 0010.767 8.92h35.713c.375 0 .744-.024 1.11-.062.116-.012.229-.031.344-.046a11.105 11.105 0 001.128-.21c.246-.06.489-.129.728-.206.107-.034.216-.065.322-.102.338-.119.67-.25.992-.4l.005-.002c.322-.151.634-.321.939-.501.096-.057.188-.119.283-.179a10.72 10.72 0 001.478-1.122c.083-.075.167-.146.248-.223.255-.244.501-.498.732-.766.09-.105.171-.218.257-.327.302-.38.588-.775.839-1.196a10.902 10.902 0 001.355-3.577l2.407-12.743 2.501-13.243 1.569-8.305L386 435.961l.404-2.14a979.45 979.45 0 011.778-.881c.028.009.045.005.06-.003.013-.007.023-.018.036-.024.857-.445 1.694-.912 2.541-1.367.886-.477 1.782-.943 2.658-1.43.76-.423 1.5-.866 2.252-1.297.945-.542 1.899-1.076 2.832-1.631.768-.458 1.516-.935 2.275-1.402.895-.55 1.8-1.091 2.682-1.653.792-.505 1.562-1.03 2.343-1.545.829-.546 1.669-1.083 2.487-1.64.772-.527 1.523-1.075 2.284-1.612.804-.567 1.618-1.123 2.41-1.701.738-.539 1.453-1.098 2.18-1.647.793-.598 1.597-1.186 2.376-1.796.706-.552 1.388-1.124 2.083-1.686.776-.627 1.564-1.245 2.326-1.884.702-.588 1.379-1.197 2.069-1.796.731-.634 1.474-1.258 2.191-1.904.669-.602 1.313-1.225 1.971-1.837.712-.663 1.437-1.317 2.135-1.992.638-.617 1.249-1.254 1.875-1.881.691-.692 1.393-1.373 2.069-2.077.615-.641 1.204-1.302 1.806-1.952.658-.711 1.329-1.412 1.972-2.134.587-.659 1.146-1.339 1.719-2.008.63-.735 1.273-1.461 1.888-2.208.559-.679 1.089-1.379 1.635-2.069.6-.758 1.213-1.506 1.796-2.276.536-.708 1.043-1.436 1.565-2.154.562-.773 1.138-1.535 1.683-2.32.51-.734.99-1.488 1.486-2.231.526-.79 1.067-1.57 1.577-2.372.633-.995 1.212-2.027 1.845-3.022.376-.59.727-1.194 1.079-1.799 1.928-3.32 4.971-5.848 8.628-7.019l.124-.04h.001l17.492-5.603 16.795-5.38a20.994 20.994 0 0014.59-19.993v-35.29c0-3.118-.702-6.107-1.956-8.812a19.49 19.49 0 00-.715-1.414zM341.689 167.12c1.086-5.155 4.652-9.441 9.442-11.634 18.404-8.424 65.294-28.695 77.348-22.381 15.095 7.907 7.188 93.267-15.814 106.296-22.218 12.585-86.687 2.283-70.976-72.281z"/><path d="M411.58 303.114c-13.632 0-24.723-11.091-24.723-24.723a7.56 7.56 0 1115.122 0c0 5.294 4.307 9.6 9.6 9.6 5.294 0 9.601-4.306 9.601-9.6a7.56 7.56 0 1115.122 0c.002 13.632-11.089 24.723-24.722 24.723zm-111.148-92.143a7.545 7.545 0 01-2.398-.392c-41.236-13.786-86.657-13.786-127.893 0a7.561 7.561 0 01-4.794-14.343c44.329-14.82 93.154-14.82 137.483 0a7.561 7.561 0 01-2.398 14.735z"/></g><circle cx="234.09" cy="104.611" r="95.64" fill="#ffb125"/><path d="M422.079 142.996c-10.496 0-35.914 8.65-66.332 22.575-1.661.76-2.86 2.195-3.206 3.836-4.433 21.038-2.062 37.971 6.858 48.965a34.2 34.2 0 003.419 3.627c1.435 1.318 3.748.579 4.225-1.309 10.571-41.87 61.876-77.694 55.036-77.694z" fill="#ff7bac"/><path d="M302.888 38.187L167.66 173.416c37.437 36.169 97.103 35.782 134.057-1.172s37.34-96.62 1.171-134.057z" fill="#ff901d"/><path d="M231.92 150.954c-16.288-.263-27.322-9.064-27.322-15.5 0-3.153 2.758-7.488 6.042-7.488 4.335 0 7.881 9.195 21.28 10.246v-30.869c-11.822-4.203-24.958-8.932-24.958-25.746 0-16.551 12.479-23.119 24.958-24.433v-3.809c0-1.576 1.576-3.021 3.81-3.021 1.97 0 3.941 1.445 3.941 3.021v3.547c8.932.263 21.543 3.021 21.543 9.458 0 2.496-1.839 7.487-5.78 7.487-3.152 0-6.568-4.203-15.763-4.86v26.665c11.428 4.203 23.907 9.983 23.907 27.848 0 16.157-9.72 25.089-23.907 27.06v4.466c0 1.576-1.97 3.021-3.941 3.021-2.233 0-3.81-1.445-3.81-3.021v-4.072zm.788-57.797V69.25c-7.356.919-12.61 4.203-12.61 11.034 0 7.487 5.648 10.246 12.61 12.873zm6.174 17.076v27.716c7.093-1.314 11.559-5.517 11.559-13.005 0-8.274-5.122-11.952-11.559-14.711z" fill="#dd7219"/></svg>