<?xml version="1.0" standalone="no"?>
<!DOCTYPE svg PUBLIC "-//W3C//DTD SVG 20010904//EN"
 "http://www.w3.org/TR/2001/REC-SVG-20010904/DTD/svg10.dtd">
<svg version="1.0" xmlns="http://www.w3.org/2000/svg"
 width="331.000000pt" height="203.000000pt" viewBox="0 0 331.000000 203.000000"
 preserveAspectRatio="xMidYMid meet">

<g transform="translate(0.000000,203.000000) scale(0.100000,-0.100000)"
fill="#000000" stroke="none">
<path d="M1610 2014 c-186 -34 -299 -76 -422 -156 -227 -149 -381 -370 -438
-629 l-13 -56 -93 -7 c-270 -19 -527 -151 -605 -311 -20 -42 -24 -65 -24 -145
0 -85 3 -100 27 -141 49 -84 137 -139 262 -166 120 -25 324 -2 474 55 l50 19
36 -51 c48 -70 185 -202 266 -256 77 -53 209 -111 302 -134 191 -48 360 -41
553 21 234 75 400 207 571 451 2 2 24 -11 50 -29 110 -75 240 -95 339 -51 56
26 85 49 85 69 0 20 -15 16 -64 -18 -87 -62 -193 -34 -296 78 l-57 62 28 83
c30 88 49 188 49 252 0 34 8 47 58 100 32 34 103 124 158 201 174 244 238 300
347 297 61 -2 75 12 30 29 -43 17 -131 2 -203 -33 -89 -43 -200 -156 -331
-338 -125 -175 -196 -247 -281 -289 -57 -28 -162 -57 -154 -42 2 3 28 49 58
101 30 52 83 150 117 218 74 145 169 259 239 287 23 9 42 23 42 31 0 18 -9 18
-51 0 -87 -36 -90 -35 -144 50 -58 92 -175 213 -264 273 -91 62 -234 127 -331
151 -82 21 -309 35 -370 24z m348 -74 c166 -40 312 -120 436 -239 65 -63 166
-193 166 -214 0 -12 -147 -4 -261 13 -65 10 -78 16 -88 36 -6 13 -17 24 -25
24 -10 0 -14 -16 -14 -63 -1 -113 -71 -268 -224 -494 -104 -153 -337 -417
-354 -400 -3 3 10 29 29 58 87 137 218 441 311 725 15 45 40 102 56 128 33 52
37 66 16 66 -32 0 -51 -18 -164 -163 -238 -303 -477 -556 -645 -681 -172 -128
-387 -234 -575 -283 -135 -35 -291 -36 -376 -3 -83 32 -149 99 -165 168 -33
136 56 276 247 391 144 86 278 122 463 122 127 0 231 -18 339 -57 79 -28 80
-28 80 -10 0 31 -201 90 -345 103 -74 6 -75 6 -69 32 46 201 132 357 271 492
154 150 324 235 539 269 85 13 255 4 352 -20z m615 -538 c-86 -69 -156 -157
-253 -319 -192 -321 -268 -414 -420 -514 -111 -74 -296 -138 -396 -139 -28 0
-16 14 171 203 111 111 231 240 268 287 139 174 242 343 273 445 10 34 15 40
35 37 90 -10 229 -3 289 16 88 27 88 27 33 -16z m-787 -167 c-29 -61 -90 -198
-135 -305 -106 -250 -157 -357 -214 -450 -31 -49 -43 -78 -37 -84 16 -16 222
9 325 39 197 57 369 171 502 330 41 48 42 49 69 35 15 -8 55 -49 88 -90 34
-41 78 -93 99 -116 l37 -41 -42 -64 c-55 -83 -176 -204 -257 -259 -85 -57
-212 -116 -308 -142 -114 -32 -363 -31 -478 0 -177 49 -365 170 -480 309 -86
104 -86 97 -8 137 148 75 340 215 491 360 85 82 287 310 358 404 21 28 39 50
40 49 1 -1 -21 -52 -50 -112z m845 -353 c-6 -39 -21 -103 -34 -144 l-23 -73
-72 90 c-39 50 -73 94 -74 98 -2 5 21 17 50 27 29 10 76 32 105 49 28 16 53
28 55 26 2 -2 -1 -35 -7 -73z"/>
</g>
</svg>
